<svg xmlns="http://www.w3.org/2000/svg" width="18.164" height="18.278" viewBox="0 0 18.164 18.278">
  <path id="Path_3" data-name="Path 3" d="M491.005,174.979a6.717,6.717,0,1,0-.921,10.257,1.423,1.423,0,0,0,.386.712l3.81,3.814a1.42,1.42,0,1,0,2.008-2.007l-3.812-3.813a1.421,1.421,0,0,0-.712-.383,6.724,6.724,0,0,0-.759-8.58Zm-1.206,8.295a5.014,5.014,0,1,1,0-7.093,5.021,5.021,0,0,1,0,7.093Zm0,0" transform="translate(-479.041 -172.515)" fill="#fff" stroke="#707070" stroke-linejoin="round" stroke-width="1"/>
</svg>
